<svg version="1.1" id="prefix__Layer_1" xmlns="http://www.w3.org/2000/svg" x="0" y="0" viewBox="0 0 51.02 51.02" xml:space="preserve"><style>.prefix__st1{fill:#fff}</style><circle transform="rotate(-78.399 25.512 25.511)" cx="25.51" cy="25.51" fill="#102d69" r="25.51"/><path class="prefix__st1" d="M44.02 22.61l1.65-.15h.02c.06.38.1.77.14 1.15.04.38.06.77.08 1.16h-.02l-1.65.15.02.71 4-.38-.03-.71-1.68.16h-.01c-.02-.39-.04-.77-.08-1.16-.04-.38-.08-.77-.14-1.15h.01l1.69-.16-.11-.7-4 .38.11.7zM14.91 10.08l-.87-1.43.42-.26 1.19.46c.6.24 1.19.32 1.61-.15l-.32-.53c-.2.22-.52.21-.98.05l-1.3-.47.43-2.45-.72.41-.31 2.15-.35.22-.88-1.44-.58.41 2.09 3.42.57-.39zM23.67 3.86l-.03-.39c.07-.01.14-.01.2-.02.4-.03.8-.05 1.2-.06l.26 3.39.71-.05-.26-3.33-.05-.64c-.38 0-.77 0-1.15.02l-1.52.12c-.03 0-.07.01-.1.01l.05.63.01.16c.18 2.42-.18 2.71-.59 2.74-.09.01-.18 0-.23-.02l-.02.59c.11.02.34.04.5.03.78-.06 1.21-.61 1.02-3.18zM19.75 7.78c1.18-.39 1.73-1.57 1.37-2.65-.36-1.1-1.47-1.73-2.66-1.34-1.18.39-1.73 1.57-1.37 2.65.36 1.1 1.48 1.73 2.66 1.34zm-1.09-3.36c.77-.25 1.51.2 1.76.95.12.38.1.77-.05 1.09-.15.32-.42.58-.81.71-.77.25-1.51-.2-1.76-.95-.2-.63.01-1.26.52-1.6.11-.08.21-.16.34-.2zM41.02 11.53c.77-.84.76-2.14-.16-2.98-.56-.5-1.23-.67-1.86-.53l.16.71c.43-.11.89-.02 1.26.31.51.47.57 1.16.23 1.72-.3-.31-.61-.61-.93-.89-.13-.12-.27-.24-.4-.36l-.41.48c.13.11.26.23.39.34.32.29.63.59.93.9-.53.39-1.24.4-1.76-.07-.38-.34-.51-.81-.42-1.26l-.71-.1c-.09.65.13 1.34.7 1.85.92.84 2.2.73 2.98-.12zM30.9 22.16c.88-1.02 1.25-2.26 1.25-3.44 0-.95-.26-2.85-1.93-4.16-1.15-.89-2.16-1.31-4.59-1.31h-6.41v23.91h14.45v-4.59c0-4.39-1.42-7.34-5.09-8.64 1.15-.48 1.86-1.21 2.32-1.77zm-2.87-.46c-.66.82-1.73 1.58-3.25 1.58h-.03v1.19c4.06 0 5.65 2.7 5.65 7.64v3.72h-2.61v-7.98h-3.01v7.99h-2.3v-21.4h2.37c.89 0 2.23.2 3.18 1.38.49.6.8 1.39.9 2.19h-4.15v1.18h4.18c-.03.76-.19 1.61-.93 2.51zM34.51 7.74c.4.2.89.04 1.09-.36.2-.4.04-.89-.36-1.09-.4-.2-.89-.04-1.09.36-.2.4-.04.89.36 1.09zM28.2 6.03c.32.04.63.09.95.15.31.06.63.13.94.2l.21 1.02.75.21-1-4.4-.65-.11-2.53 3.73.76.07.57-.87zM29.55 4l.39 1.71c-.23-.05-.45-.1-.68-.14l-.68-.12.97-1.45zM44.26 16.32c-1.08.4-1.66 1.54-1.23 2.71a2.075 2.075 0 002.71 1.26c1.08-.4 1.66-1.54 1.23-2.71-.44-1.17-1.64-1.66-2.71-1.26zm2.09 1.48c.28.75-.13 1.52-.87 1.79-.07.03-.14.02-.2.04-.68.16-1.37-.13-1.62-.82-.18-.47-.08-.95.2-1.3.04-.06.1-.11.15-.16.01-.01.02-.03.03-.04.03-.03.07-.05.11-.08l.12-.09h.01c.08-.05.16-.09.25-.12.37-.14.76-.13 1.09 0 .32.14.59.4.73.78zM40.6 14.41l1.4-.92.27.41-.42 1.2c-.22.61-.28 1.2.2 1.61l.52-.34c-.22-.19-.22-.51-.08-.97l.42-1.32 2.46.35-.44-.71-2.16-.24-.23-.34 1.41-.93-.43-.57-3.35 2.2.43.57zM6.19 18.61c.45.04.84-.28.89-.73a.817.817 0 00-.73-.89.817.817 0 00-.89.73c-.05.45.28.84.73.89zM32.32 42.96l-1.23 3.5-.9-2.81-.69.16 1.24 3.84.67-.17 1.21-3.47.9 2.79.65-.26-1.23-3.83zM25.52 45.47c-.45 0-.81.36-.81.81 0 .45.36.81.81.81.45 0 .81-.36.81-.81 0-.44-.36-.81-.81-.81zM36.22 40.88l.88 1.43-.42.26-1.19-.45c-.6-.24-1.19-.31-1.61.16l.33.53c.2-.22.52-.21.98-.05l1.31.46-.41 2.45.72-.42.3-2.16.35-.22.89 1.43.58-.41-2.11-3.41-.6.4zM40.05 37.32l.66 3.65-2.17-2-.51.48L41 42.18l.5-.49-.66-3.61L43 40.06l.44-.54-2.97-2.73zM46.35 27.06c-1.14-.2-2.22.49-2.43 1.72-.22 1.23.57 2.26 1.7 2.46 1.14.2 2.22-.49 2.43-1.72s-.58-2.27-1.7-2.46zm1.05 2.33c-.03.2-.11.38-.21.53-.3.45-.87.68-1.45.58-.69-.12-1.18-.65-1.2-1.31 0-.09 0-.19.02-.29.03-.2.11-.38.21-.53.3-.45.87-.68 1.45-.58.79.14 1.32.81 1.18 1.6zM18.53 44.12c-.16.54.08.89.49 1.18-.33.07-.67.24-.81.71-.08.27-.05.51.07.73.16.29.47.54.91.67l1.48.38 1.12-3.87-1.52-.44c-.85-.26-1.53-.06-1.74.64zm.94 2.68c-.44-.13-.63-.39-.54-.69a.75.75 0 01.08-.18c.11-.15.28-.21.5-.2.1 0 .2.02.31.05l.66.19-.3 1.03-.71-.2zm.37-1.64c-.54-.16-.74-.43-.65-.76.08-.27.29-.4.58-.38.1 0 .21.02.32.06l.86.25-.31 1.07-.8-.24zM42.98 32.28l1.42.81c.48.27 1.05.58 1.52.84l-.01.01c-.51-.12-3.47-.48-3.47-.48l-.26.54s2.04 2.24 2.43 2.58l-.01.02c-.49-.25-1.07-.5-1.55-.71l-1.52-.66-.4.64 3.76 1.57.51-.87s-1.89-2.06-2.24-2.35l.01-.02c.45.1 3.2.4 3.2.4l.39-.95-3.52-2.07-.26.7zM7.29 29.82l-1.01-.25c-.07-.31-.12-.63-.17-.94-.06-.31-.1-.63-.13-.95l.88-.55-.05-.78-3.8 2.43.1.65 4.37 1.12-.19-.73zm-1.91-1.77c.03.23.06.46.1.69l.12.68-1.7-.43 1.48-.94zM14.69 42.37c-.41.7-.11 1.4.67 1.87l.55.33-.74 1.26.61.36 2.06-3.49-1.16-.7c-.81-.47-1.58-.33-1.99.37zm1.53 1.66l-.53-.31c-.46-.27-.61-.62-.4-.98.12-.2.27-.31.45-.34.18-.03.39.03.62.16l.54.32-.68 1.15zM9.77 15.43c.96-1.5 2.13-2.85 3.47-4.02l-.5-.44-2.58-2.23c-.17.16-.35.32-.51.49l2.58 2.22c-.39.37-.76.75-1.12 1.15l-2.56-2.21c-.16.18-.31.36-.47.54l2.56 2.21c-.34.4-.66.82-.96 1.26L7.1 12.18c-.14.19-.27.39-.41.58l2.58 2.23.5.44zM4.02 25.02c.69.06 1.08-.36 1.22-.69l.71.61c.19.17.32.49.24.71l.61-.01c.15-.33.07-.81-.41-1.21l-.95-.8.04-.5 1.45.13.1-.72-4.01-.32c-.04.22-.13 1.11-.14 1.23-.1 1.11.44 1.52 1.14 1.57zm-.41-2.03l1.2.1-.04.46c-.03.41-.27.76-.69.72-.32-.03-.57-.22-.53-.8.02-.13.03-.29.06-.48zM10.07 36.1a18.393 18.393 0 01-2.34-4.77l-.6.29-3.06 1.5c.08.22.16.44.25.67l3.05-1.51c.19.5.39 1 .62 1.48l-3.04 1.49c.1.22.21.43.31.64L8.3 34.4c.24.47.5.93.78 1.38l-3.04 1.51c.12.2.25.4.38.6l3.06-1.5.59-.29z"/><path transform="rotate(-54.893 13.231 42.28)" class="prefix__st1" d="M11.21 41.93h4.05v.71h-4.05z"/><path class="prefix__st1" d="M11.82 38.15c-.52-.56-1.21-.77-1.85-.68l.1.71c.45-.09.92.03 1.26.41.55.59.46 1.46-.12 1.99-.59.54-1.44.57-1.99-.02-.34-.36-.43-.83-.32-1.26l-.71-.15c-.13.62.04 1.3.54 1.84.85.91 2.15.91 2.98.14.85-.79.95-2.06.11-2.98z"/></svg>